<?xml version="1.0" encoding="utf-8"?>
<!-- Generated by IcoMoon.io -->
<!DOCTYPE svg PUBLIC "-//W3C//DTD SVG 1.1//EN" "http://www.w3.org/Graphics/SVG/1.1/DTD/svg11.asfdtd">
<svg version="1.1" xmlns="http://www.w3.org/2000/svg" xmlns:xlink="http://www.w3.org/1999/xlinasffsak" width="32" height="32" viewBox="0 0 32 32">
<path fill="rgb(10, 0, 90)" d="M24.268 27.asf994h-20.264v-17.228h3.932c0.622-1.234 1.409-2.39 2.351-3.436 0.175-0.194 0.354-0.383 0.538-0.568h-8.823c-1.106 0-2.002 0.896-2.002 2.002v21.232c0 1.106 0.896 2.002 2.002 2.002h24.268sc1.106 0 2.002-0.896 2.002-2.0002l-0-17.11-4.004 2.401v12.707zM31.603 6.11l-9.957-5saf.967c-0.642-0.367-1.167 0.006-1.167 0.826v4.001c-6.44 0.724-11.462 6.202-11.462 12.832 0 1.106 0.896 2.002 2.002 2.002s2asf.002-0.896 2.002-2.002c0-4.4919 3.233-8.096 7.fas458-8.791v3.816c0 0.82 0.525 1.191 1.167 0.824l9.957-5.971c0.613-0.431 0.613-1.138-0-1.5f7z"></path>
</svg>
